{
  "asset": {
    "generator": "Khronos glTF Blender I/O v3.5.30",
    "version": "2.0"
  },
  "scene": 0,
  "scenes": [
    {
      "name": "Scene",
      "nodes": [
        0
      ]
    }
  ],
  "nodes": [
    {
      "mesh": 0,
      "name": "tree_stump_01"
    }
  ],
  "materials": [
    {
      "doubleSided": true,
      "name": "tree_stump_01",
      "normalTexture": {
        "index": 0
      },
      "pbrMetallicRoughness": {
        "baseColorTexture": {
          "index": 1
        },
        "metallicFactor": 0,
        "metallicRoughnessTexture": {
          "index": 2
        }
      }
    }
  ],
  "meshes": [
    {
      "name": "tt_01_rep.001",
      "primitives": [
        {
          "attributes": {
            "POSITION": 0,
            "TEXCOORD_0": 1,
            "NORMAL": 2
          },
          "indices": 3,
          "material": 0
        }
      ]
    }
  ],
  "textures": [
    {
      "sampler": 0,
      "source": 0
    },
    {
      "sampler": 0,
      "source": 1
    },
    {
      "sampler": 0,
      "source": 2
    }
  ],
  "images": [
    {
      "mimeType": "image/jpeg",
      "name": "tree_stump_01_nor_gl",
      "uri": "textures/tree_stump_01_nor_gl_1k.jpg"
    },
    {
      "mimeType": "image/jpeg",
      "name": "tree_stump_01_diff",
      "uri": "textures/tree_stump_01_diff_1k.jpg"
    },
    {
      "mimeType": "image/jpeg",
      "name": "tree_stump_01_rough",
      "uri": "textures/tree_stump_01_arm_1k.jpg"
    }
  ],
  "accessors": [
    {
      "bufferView": 0,
      "componentType": 5126,
      "count": 22472,
      "max": [
        0.6411310434341431,
        0.37968912720680237,
        0.8298710584640503
      ],
      "min": [
        -0.7844194173812866,
        -0.1929784119129181,
        -0.7604432702064514
      ],
      "type": "VEC3"
    },
    {
      "bufferView": 1,
      "componentType": 5126,
      "count": 22472,
      "type": "VEC2"
    },
    {
      "bufferView": 2,
      "componentType": 5126,
      "count": 22472,
      "type": "VEC3"
    },
    {
      "bufferView": 3,
      "componentType": 5123,
      "count": 123138,
      "type": "SCALAR"
    }
  ],
  "bufferViews": [
    {
      "buffer": 0,
      "byteLength": 269664,
      "byteOffset": 0,
      "target": 34962
    },
    {
      "buffer": 0,
      "byteLength": 179776,
      "byteOffset": 269664,
      "target": 34962
    },
    {
      "buffer": 0,
      "byteLength": 269664,
      "byteOffset": 449440,
      "target": 34962
    },
    {
      "buffer": 0,
      "byteLength": 246276,
      "byteOffset": 719104,
      "target": 34963
    }
  ],
  "samplers": [
    {
      "magFilter": 9729,
      "minFilter": 9987
    }
  ],
  "buffers": [
    {
      "byteLength": 965380,
      "uri": "tree_stump_01.bin"
    }
  ]
}